<mxfile host="app.diagrams.net" modified="2024-08-08T15:32:59.898Z" agent="Mozilla/5.0 (Windows NT 10.0; Win64; x64) AppleWebKit/537.36 (KHTML, like Gecko) Chrome/127.0.0.0 Safari/537.36" etag="jfjvvtfnfLfcyInF5tf6" version="24.5.4" type="device">
  <diagram name="PÃ¡gina-1" id="3DfHqEBhYO2zoOYcKN90">
    <mxGraphModel dx="1354" dy="592" grid="1" gridSize="10" guides="1" tooltips="1" connect="1" arrows="1" fold="1" page="1" pageScale="1" pageWidth="827" pageHeight="1169" math="0" shadow="0">
      <root>
        <mxCell id="0" />
        <mxCell id="1" parent="0" />
        <mxCell id="etQOouXUkRSUT5x8s2Xr-8" style="edgeStyle=orthogonalEdgeStyle;rounded=0;orthogonalLoop=1;jettySize=auto;html=1;exitX=0.5;exitY=1;exitDx=0;exitDy=0;exitPerimeter=0;" edge="1" parent="1" source="etQOouXUkRSUT5x8s2Xr-6">
          <mxGeometry relative="1" as="geometry">
            <mxPoint x="400" y="160" as="targetPoint" />
          </mxGeometry>
        </mxCell>
        <mxCell id="etQOouXUkRSUT5x8s2Xr-6" value="INICIO" style="strokeWidth=2;html=1;shape=mxgraph.flowchart.start_1;whiteSpace=wrap;" vertex="1" parent="1">
          <mxGeometry x="350" y="30" width="100" height="60" as="geometry" />
        </mxCell>
        <mxCell id="etQOouXUkRSUT5x8s2Xr-11" style="edgeStyle=orthogonalEdgeStyle;rounded=0;orthogonalLoop=1;jettySize=auto;html=1;entryX=0.5;entryY=0;entryDx=0;entryDy=0;" edge="1" parent="1" source="etQOouXUkRSUT5x8s2Xr-9" target="etQOouXUkRSUT5x8s2Xr-10">
          <mxGeometry relative="1" as="geometry" />
        </mxCell>
        <mxCell id="etQOouXUkRSUT5x8s2Xr-9" value="valorA=3" style="shape=parallelogram;perimeter=parallelogramPerimeter;whiteSpace=wrap;html=1;fixedSize=1;" vertex="1" parent="1">
          <mxGeometry x="340" y="160" width="120" height="60" as="geometry" />
        </mxCell>
        <mxCell id="etQOouXUkRSUT5x8s2Xr-13" value="" style="edgeStyle=orthogonalEdgeStyle;rounded=0;orthogonalLoop=1;jettySize=auto;html=1;" edge="1" parent="1" source="etQOouXUkRSUT5x8s2Xr-10" target="etQOouXUkRSUT5x8s2Xr-12">
          <mxGeometry relative="1" as="geometry" />
        </mxCell>
        <mxCell id="etQOouXUkRSUT5x8s2Xr-10" value="valorB=3" style="shape=parallelogram;perimeter=parallelogramPerimeter;whiteSpace=wrap;html=1;fixedSize=1;" vertex="1" parent="1">
          <mxGeometry x="340" y="280" width="120" height="60" as="geometry" />
        </mxCell>
        <mxCell id="etQOouXUkRSUT5x8s2Xr-16" value="" style="edgeStyle=orthogonalEdgeStyle;rounded=0;orthogonalLoop=1;jettySize=auto;html=1;" edge="1" parent="1" source="etQOouXUkRSUT5x8s2Xr-12" target="etQOouXUkRSUT5x8s2Xr-15">
          <mxGeometry relative="1" as="geometry" />
        </mxCell>
        <mxCell id="etQOouXUkRSUT5x8s2Xr-12" value="valorA&amp;gt;valorB" style="rhombus;whiteSpace=wrap;html=1;" vertex="1" parent="1">
          <mxGeometry x="337.5" y="400" width="125" height="80" as="geometry" />
        </mxCell>
        <mxCell id="etQOouXUkRSUT5x8s2Xr-15" value="" style="strokeWidth=2;html=1;shape=mxgraph.flowchart.display;whiteSpace=wrap;" vertex="1" parent="1">
          <mxGeometry x="180" y="410" width="100" height="60" as="geometry" />
        </mxCell>
      </root>
    </mxGraphModel>
  </diagram>
</mxfile>
